Coordinates
version=1
nRows=12
nColumns=24
inDegrees=yes

Units are S.I. units (second, meters, Newtons, ...)
Angles are in degrees.

endheader
time	pelvis_tilt	pelvis_list	pelvis_rotation	pelvis_tx	pelvis_ty	pelvis_tz	hip_flexion_r	hip_adduction_r	hip_rotation_r	knee_angle_r	ankle_angle_r	subtalar_angle_r	mtp_angle_r	hip_flexion_l	hip_adduction_l	hip_rotation_l	knee_angle_l	ankle_angle_l	subtalar_angle_l	mtp_angle_l	lumbar_extension	lumbar_bending	lumbar_rotation
      5.49000000	      6.79308740	     -6.97032352	     -3.30599229	     -0.26841739	      0.92257193	     -0.17717253	    -18.33131613	     10.39395826	      2.56199820	    -11.14548049	     18.63930561	      2.88893918	      0.00000000	     11.87483588	     -4.87742780	     -7.01529081	     -0.60415193	      3.74317798	      1.61313423	      0.00000000	    -25.46843259	      5.78044385	      6.90831754
      5.50000000	      6.89304984	     -6.96150602	     -3.55757784	     -0.25702660	      0.92246912	     -0.17807311	    -18.42207618	     10.11110263	      2.52872565	    -12.59704248	     18.25576243	      3.36501940	      0.00000000	     11.62889529	     -4.85478227	     -6.13690243	     -1.67157469	      2.63830500	      0.49021141	      0.00000000	    -25.42504775	      5.68767995	      7.08975725
      5.51000000	      7.02206889	     -6.88478499	     -3.76346006	     -0.24541159	      0.92270431	     -0.17909932	    -18.47859606	      9.73614505	      2.28858511	    -14.12938626	     17.64300237	      4.02255538	      0.00000000	     11.27653138	     -4.70872447	     -5.01425388	     -2.59833287	      1.18390708	     -0.89528565	      0.00000000	    -25.35369823	      5.52040352	      7.24196547
      5.52000000	      7.15747156	     -6.72703437	     -3.95551414	     -0.23365994	      0.92328556	     -0.18017156	    -18.43233945	      9.26450611	      1.96557896	    -15.82206267	     16.83351373	      4.70215226	      0.00000000	     10.86579530	     -4.44333661	     -3.95279208	     -3.39531142	     -0.42638422	     -2.23416450	      0.00000000	    -25.24902471	      5.26654805	      7.30691270
      5.53000000	      7.32308417	     -6.51663801	     -4.09264721	     -0.22181238	      0.92422503	     -0.18133449	    -18.30375270	      8.72842333	      1.44435797	    -17.65540820	     15.70441447	      5.35531292	      0.00000000	     10.40735268	     -4.08407804	     -2.87399009	     -4.14057668	     -1.94189288	     -3.63970464	      0.00000000	    -25.14858345	      4.96778023	      7.30684027
      5.54000000	      7.49914748	     -6.24436469	     -4.16097288	     -0.20990812	      0.92547315	     -0.18255106	    -18.07409345	      8.14477931	      0.83211127	    -19.61358240	     14.28428307	      5.87823912	      0.00000000	      9.94569670	     -3.63414187	     -1.86385415	     -4.89686362	     -3.26712512	     -4.86571144	      0.00000000	    -25.02721700	      4.60164679	      7.22408236
      5.55000000	      7.68885867	     -5.97576271	     -4.17567771	     -0.19803844	      0.92696394	     -0.18382370	    -17.71641527	      7.56629479	      0.08177167	    -21.73253820	     12.44856333	      6.14318256	      0.00000000	      9.49202754	     -3.16603402	     -0.94936815	     -5.73095326	     -4.08647931	     -6.03800134	      0.00000000	    -24.92649277	      4.25606849	      7.10733742
      5.56000000	      7.87033449	     -5.71893180	     -4.15367253	     -0.18625304	      0.92862294	     -0.18512117	    -17.21026984	      7.00936388	     -0.70837392	    -23.98718623	     10.15504747	      6.08992283	      0.00000000	      9.05561844	     -2.70180274	     -0.21881279	     -6.62694242	     -4.44472682	     -6.94141990	      0.00000000	    -24.82837416	      3.93082528	      6.97307182
      5.57000000	      8.02490818	     -5.47243763	     -4.10672329	     -0.17459463	      0.93035193	     -0.18644490	    -16.52049035	      6.46489558	     -1.54213760	    -26.38269449	      7.37006743	      5.68686863	      0.00000000	      8.63611225	     -2.24565929	      0.33950867	     -7.54685230	     -4.32201120	     -7.51365387	      0.00000000	    -24.72130000	      3.62472182	      6.83344046
      5.58000000	      8.12394040	     -5.25983473	     -4.05590585	     -0.16313140	      0.93203398	     -0.18779433	    -15.60951451	      5.95076210	     -2.37839731	    -28.91081167	      4.08128321	      4.86311663	      0.00000000	      8.24760733	     -1.82798232	      0.73989893	     -8.44367413	     -3.78316084	     -7.88429216	      0.00000000	    -24.59297473	      3.37425406	      6.68346389
      5.59000000	      8.15307302	     -5.08819739	     -4.03759576	     -0.15190959	      0.93360059	     -0.18911799	    -14.46828250	      5.47525681	     -3.12291458	    -31.54461394	      0.26998802	      3.55158608	      0.00000000	      7.88117639	     -1.46807304	      0.94832055	     -9.25013145	     -3.01003070	     -8.10894149	      0.00000000	    -24.43879789	      3.18237604	      6.54290488
      5.60000000	      8.12640122	     -4.95006259	     -4.15398711	     -0.14095201	      0.93506218	     -0.19024563	    -13.12326876	      5.03080539	     -3.58478016	    -34.25908404	     -4.02070330	      1.77915622	      0.00000000	      7.47126692	     -1.17735342	      0.92006527	     -9.87395131	     -2.15779212	     -8.12913580	      0.00000000	    -24.28105131	      2.99134664	      6.54494430
